<!-- Generator: Adobe Illustrator 18.1.1, SVG Export Plug-In  -->
<svg version="1.1"
	 xmlns="http://www.w3.org/2000/svg" xmlns:xlink="http://www.w3.org/1999/xlink" xmlns:a="http://ns.adobe.com/AdobeSVGViewerExtensions/3.0/"
	 x="0px" y="0px" viewBox="0 0 89.5 68.9" xml:space="preserve">
<defs>
</defs>
<path fill="#2C3A49" d="M0,41h19.6c0,0,3.7,0.2,4.2,6.9c1.4,18.5,7.2,20.9,7.2,20.9s-0.8-26.5,7.3-27.3c4.6-0.4,13.3-0.4,13.3-0.4
	L45,37.3V36h-7.6c0,0,4-6.5,0.8-16.7C36.2,12.4,43,7.1,41.3,0c-2.8,5.4-13.7,9.3-13.8,20.7c0,10.5-4.5,16.2-10.5,16.2
	c-9.5,0-10.4-2.6-13.2-1.4C1.1,36.6,0,41,0,41"/>
<path fill="#2C3A49" d="M78.1,49c0.5-8.5-1.2-13.6-5.3-19.7c10.7-3.2,16.7-9.5,16.7-9.5s-2.5,0-13.7,0c-8.3,0-10.3,1.6-13.2,3.6
	c-2.2,1.5-5.3,2.7-9,2.7c-3.7,0-6.1-1.5-8.1-0.8c-2,0.7-2.8,3.5-2.8,3.5H55c0,0,3.6-0.6,4.5,3.5c0,0,3.5,10.1,9.4,13.4
	c0.9-1.8,1.3-3.9,1.3-3.9S75.3,47.5,78.1,49"/>
</svg>