<svg version="1.1" xmlns="http://www.w3.org/2000/svg" xmlns:xlink="http://www.w3.org/1999/xlink" xmlns:a="http://ns.adobe.com/AdobeSVGViewerExtensions/3.0/" x="0px" y="0px" viewBox="0 0 35.7 64.1" xml:space="preserve">
							<defs>
							</defs>
							<path fill="#2C3A49" d="M22.2,12.6c0,3.8-2.4,6.8-5.4,6.8c-3,0-5.4-3-5.4-6.8C11.3,6.2,16.7,0,16.7,0S22.2,5.1,22.2,12.6"></path>
							<path fill="#2C3A49" d="M28.8,44.2C25,47,20,46.4,18,43.3c-2-3.1-0.7-8.3,3.6-10.2c6.9-3.1,14-4.3,14-4.3S35.7,39.1,28.8,44.2"></path>
							<path fill="#2C3A49" d="M28.5,61.5c-3.6,3.4-8.9,3.4-11.4,0.5c-2.5-2.9-1.8-8.5,2.4-11.1c6.7-4.1,14-6.3,14-6.3S35,55.2,28.5,61.5"></path>
							<path fill="#2C3A49" d="M5.2,58.5c3.6,3.4,8.9,3.4,11.4,0.5c2.5-2.9,1.8-8.5-2.4-11.1c-6.7-4.1-14-6.3-14-6.3S-1.3,52.3,5.2,58.5"></path>
							<path fill="#2C3A49" d="M27.4,29.1c-3.3,2.5-7.8,2-9.5-0.7c-1.8-2.7-0.7-7.3,3.1-9c6-2.8,12.3-3.9,12.3-3.9S33.4,24.5,27.4,29.1"></path>
							<path fill="#2C3A49" d="M4.8,41.7c3.1,3,7.8,3,9.9,0.4c2.2-2.5,1.6-7.4-2.1-9.7c-5.9-3.6-12.2-5.5-12.2-5.5S-0.8,36.2,4.8,41.7"></path>
							<path fill="#2C3A49" d="M6.4,28c2.7,2.6,6.8,2.6,8.7,0.4c1.9-2.2,1.4-6.5-1.9-8.5C8.1,16.8,2.6,15,2.6,15S1.4,23.2,6.4,28"></path>
							</svg>