<?xml version="1.0" encoding="utf-8"?>
<!-- Generator: Adobe Illustrator 18.1.1, SVG Export Plug-In . SVG Version: 6.00 Build 0)  -->
<svg version="1.1" id="Layer_1" xmlns="http://www.w3.org/2000/svg" xmlns:xlink="http://www.w3.org/1999/xlink" x="0px" y="0px"
	 viewBox="0 0 100.9 71.4" enable-background="new 0 0 100.9 71.4" xml:space="preserve">
<g id="damage-drone">
	<path fill="#FFFFFF" d="M0.5,46.5C3.2,56,16.3,61.2,29.2,57.8c5.5-1.5,7-5.2,12.3-3.9c5.7,1.6,4.4,15.5,27,17.4
		c14.8,1.2,26.9-8,27.4-19.5c0.7-13.9-9.6-15.3-9.2-18c0.2-3.7,14.3-2.7,14.2-15.5C100.9,10,88.3,4,75.3,4.9
		c-8.5,0.6-13.1,4.4-14.8,3.5C58,8,57.3-0.7,39.2,0.1C28,0.5,19,7.1,19.6,13.6c0.3,3.7,3.6,4.9,3.2,7.3c-0.4,1.8-0.8,1.5-3.8,2.3
		C6.2,26.5-2.1,37,0.5,46.5z M41.1,21.3c-9.5,0.8-17.6-3-18.1-8.4S29.9,2.5,39.4,1.7s17.6,3,18.1,8.4S50.6,20.5,41.1,21.3z
		 M77.7,28.8C67.6,28,59.9,22.4,60.4,16.3s9.1-10.4,19.2-9.5c10.1,0.8,17.8,6.4,17.3,12.5C96.4,25.3,87.8,29.6,77.7,28.8z
		 M46.6,47.5c0.5-9.5,11.4-16.7,24.2-16c12.8,0.7,22.6,9.2,22,18.8C92.3,59.8,82,67.1,69.1,66.4C56.4,65.7,46.1,57.1,46.6,47.5z
		 M45.1,26.5c0.2-2.4,3.6-4.1,7.6-3.8s7,2.5,6.8,5c-0.2,2.4-3.6,4.1-7.6,3.8C48,31.1,44.9,28.9,45.1,26.5z M18.6,25.1
		c11.3-3.6,22.5,0.1,25,7.7c2.5,7.7-4.1,16.7-15.5,20.2c-11.3,3.6-23,0-25.5-7.6C0.2,37.7,7.3,28.6,18.6,25.1z"/>
	<path fill="#FFFFFF" d="M70.7,47.4L70,45l-6.6-9.5c0,0-1.9-0.2-3.5,0.7c-0.1,0.1,4.8,9.7,4.8,9.7s2.4,0.5,3.6,1.8
		c1,1.1,8.8,13.4,8.8,13.4l3.6,0.1c0,0-5.8-9.6-6.9-11.3C73.2,49.1,71.4,48.5,70.7,47.4z"/>
	<path fill="#FFFFFF" d="M22.1,37.2l-2.7-0.8L6.8,36.5c0,0-1.3,1.6-1.3,3.5c0,0.2,11.8,1.5,11.8,1.5s1.8-1.8,3.7-2.1
		c1.5-0.2,17.5,0.3,17.5,0.3l2.1-3.1c0,0-12.2-0.7-14.4-0.7C25.1,35.9,23.6,37.2,22.1,37.2z"/>
	<path fill="#FFFFFF" d="M39.3,11.4l-2.1-0.1l-9.1,2.3c0,0-0.6,1.3-0.3,2.7c0,0.1,8.8-0.9,8.8-0.9s1-1.6,2.3-2.1
		c1.1-0.4,12.7-2.8,12.7-2.8l1-2.6c0,0-9,1.6-10.6,1.9C41.2,10,40.3,11.1,39.3,11.4z"/>
	<path fill="#FFFFFF" d="M79.1,17.5l-1.4-0.8l-4.9-5.1c0,0,0.2-1.1,1-1.9c0.1-0.1,5.3,4.2,5.3,4.2s-0.1,1.4,0.6,2.3
		c0.5,0.7,7,6.9,7,6.9l-0.5,2.1c0,0-5.1-4.7-6-5.5C79.7,19.1,79.7,18,79.1,17.5z"/>
</g>
</svg>
