<svg version="1.1" xmlns="http://www.w3.org/2000/svg" xmlns:xlink="http://www.w3.org/1999/xlink" xmlns:a="http://ns.adobe.com/AdobeSVGViewerExtensions/3.0/" x="0px" y="0px" viewBox="0 0 96.1 51" xml:space="preserve">
					<defs>
					</defs>
					<g>
						<g>
							<path fill="#F7F7F7" d="M48,51C22.5,51,2.4,28.2,1.5,27.2L0,25.5l1.5-1.7C2.4,22.8,22.5,0,48,0c25.5,0,45.7,22.8,46.5,23.7
								l1.5,1.7l-1.5,1.7C93.7,28.2,73.5,51,48,51z M7.2,25.5c5.1,5.2,21.7,20.2,40.9,20.2c19.2,0,35.7-15,40.9-20.2
								C83.8,20.3,67.2,5.3,48,5.3C28.8,5.3,12.3,20.3,7.2,25.5z"></path>
						</g>
						<g>
							<path fill="#F7F7F7" d="M48.2,46.5c-11.9,0-21.6-9.7-21.6-21.6S36.2,3.2,48.2,3.2c11.9,0,21.6,9.7,21.6,21.6S60.1,46.5,48.2,46.5z
								 M48.2,18.5c-3.5,0-6.4,2.9-6.4,6.4s2.9,6.4,6.4,6.4c3.5,0,6.4-2.9,6.4-6.4S51.7,18.5,48.2,18.5z"></path>
						</g>
					</g>
					</svg>