<!-- Generator: Adobe Illustrator 18.1.1, SVG Export Plug-In  -->
<svg version="1.1"
	 xmlns="http://www.w3.org/2000/svg" xmlns:xlink="http://www.w3.org/1999/xlink" xmlns:a="http://ns.adobe.com/AdobeSVGViewerExtensions/3.0/"
	 x="0px" y="0px" viewBox="0 0 54 63.5" xml:space="preserve">
<defs>
</defs>
<path fill="#2C3A49" d="M16.8,63.5c0,0-30.6-4.2-9.2-42.6c2.6,3.7,3.3,7.8,3.3,7.8S22.5,20.9,21.4,0c9.5,3,17.9,14.4,18.1,22.3
	c0,0,2.7-5.1,2.5-8.5c6.7,4.7,15.7,17.9,10.3,35.4c-6.2,14.4-15.7,14.3-15.7,14.3s12.9-15.2-9-30.6c0,0,3.5,11.3-4.1,16.3
	c-3.7-3.7-3.7-8-3.7-8S8.3,51,16.8,63.5"/>
</svg>