<svg version="1.1" xmlns="http://www.w3.org/2000/svg" xmlns:xlink="http://www.w3.org/1999/xlink" xmlns:a="http://ns.adobe.com/AdobeSVGViewerExtensions/3.0/" x="0px" y="0px" viewBox="0 0 25.8 17.9" xml:space="preserve">
							<defs>
							</defs>
							<g>
								<path fill="#2C3A49" d="M8.5,13.6c0.7,1.5,1.8,2.9,3.2,4.3c-2.8-0.4-5.1-2-6.4-4.3L8.5,13.6z M11.6,0.1c-2.6,0.4-4.9,2-6.3,4.2l3.2,0
									C9.2,2.8,10.2,1.4,11.6,0.1L11.6,0.1z M12.6,4.3l0-4.3h0C11.2,1.3,10,2.8,9.2,4.3L12.6,4.3z M5.3,5.7l-0.6,0L4,5.7L4,10.2L1.5,5.6
									l-0.7,0l-0.7,0L0,12l0.6,0l0.6,0l0.1-4.6l2.6,4.6l0.7,0l0.7,0L5.3,5.7z M11.3,6.9l0-0.6l0-0.6l-4.7,0l-0.1,6.4l4.9,0.1l0-0.6l0-0.6
									l-3.5,0l0-1.7l3.1,0l0-0.6l0-0.6l-3.1,0l0-1.4L11.3,6.9z M17.7,10.4l-0.9-4.7l-0.7,0l-0.7,0l-1,4.7l-1-4.7l-1.4,0l1.7,6.4l0.6,0
									l0.6,0l1.1-5l1,5l0.6,0l0.6,0l1.8-6.4l-1.4,0L17.7,10.4z M13.4,0L13.4,0l-0.1,4.3l3.4,0C16,2.8,14.9,1.4,13.4,0L13.4,0z M20.7,4.4
									c-1.3-2.2-3.6-3.8-6.2-4.3c1.3,1.3,2.3,2.8,3,4.3L20.7,4.4z M14,17.9c2.8-0.3,5.1-1.9,6.5-4.2l-3.3,0C16.5,15.2,15.5,16.6,14,17.9
									L14,17.9z M16.5,13.7l-3.3,0l0,4.1C14.6,16.5,15.8,15.1,16.5,13.7L16.5,13.7z M25.4,9.2c-0.3-0.3-0.9-0.5-1.9-0.7
									c-0.6-0.2-1.1-0.3-1.3-0.4C22,8,21.9,7.8,21.9,7.6c0-0.3,0.1-0.5,0.3-0.6c0.2-0.1,0.5-0.2,0.8-0.2c0.4,0,0.7,0.1,1,0.3
									c0.2,0.2,0.4,0.4,0.4,0.7l1.3,0c0-0.6-0.3-1.2-0.7-1.5c-0.4-0.4-1-0.6-1.7-0.6c-0.8,0-1.4,0.2-1.8,0.5c-0.5,0.4-0.7,0.9-0.7,1.5
									c0,0.6,0.2,1,0.5,1.2c0.3,0.3,1,0.5,2,0.8c0.6,0.1,0.9,0.3,1.1,0.4c0.2,0.1,0.3,0.3,0.2,0.5c0,0.2-0.1,0.4-0.4,0.6
									c-0.2,0.1-0.6,0.2-1,0.2c-0.4,0-0.7-0.1-1-0.3c-0.2-0.2-0.4-0.4-0.4-0.8l-1.3,0c0,0.7,0.3,1.2,0.7,1.6c0.5,0.4,1.1,0.6,1.9,0.6
									c0.8,0,1.4-0.2,1.9-0.5c0.5-0.3,0.7-0.8,0.7-1.4C25.8,9.9,25.7,9.5,25.4,9.2L25.4,9.2z M12.5,17.8l0-4.1l-3.3,0
									C10,15.1,11.1,16.5,12.5,17.8L12.5,17.8z M12.5,17.8"></path>
							</g>
							</svg>