<!-- Generator: Adobe Illustrator 18.1.1, SVG Export Plug-In  -->
<svg version="1.1"
	 xmlns="http://www.w3.org/2000/svg" xmlns:xlink="http://www.w3.org/1999/xlink" xmlns:a="http://ns.adobe.com/AdobeSVGViewerExtensions/3.0/"
	 x="0px" y="0px" width="370px" height="541px" viewBox="0 0 370 541" enable-background="new 0 0 370 541" xml:space="preserve" id="check-yourself-image">
<defs>
</defs>
<g>
	<g>
		<path fill="#FFFFFF" d="M240,540.9c-80,0-160,0-240,0c0-103.3,0-206.6,0-310c0.4,2.6,0.6,5.2,1.3,7.6c1.5,4.8,2.4,10.2,5.3,14.1
			c3.8,5,11.9,5.6,17.4,2.9c6.2-3,9-8,8.7-14.9c-0.4-9.1-1.3-18.3-1.1-27.4c1.4-53.1,21.7-98,60.5-134
			c27.1-25.2,59.3-40.7,95.9-47.1c3.3-0.6,6.9-1.9,9.4-4c5.4-4.5,6.3-12,3-18.7c-3.2-6.4-9.3-9.2-17.2-7.8
			c-4.6,0.8-9.2,1.7-13.7,2.8C113.3,18.4,68.4,48.8,36.3,97.5c-18.5,28.1-29.7,59-34.1,92.3c-0.6,4.7-1.5,9.4-2.2,14.1
			C0,136,0,68,0,0c123.3,0,246.6,0,370,0c0,180.3,0,360.6,0,540.9c-14.3,0-28.7,0-43,0c-0.2-2-0.5-4-0.5-5.9
			c0.3-23.6,0.8-47.3,1.1-70.9c0.4-29.8,0.7-59.6,1.2-89.4c0.2-15.5,0.7-31,0.8-46.4c0-3.9,1.5-4.8,5-4.7c7.3,0.2,14.7,0.1,22,0.1
			c7.6,0,12.4-4.4,12.2-11.9c-0.1-6.1-0.9-12.3-1.6-18.4c-2.5-19-5.7-37.8-11.9-56.1c-3.4-10.3-9.2-18.2-19.7-21.6
			c-7.4-2.3-15.1-4.9-22.7-5.3c-19.2-1-38.5-1.6-57.8-1c-8.9,0.3-17.9,3.1-26.6,5.7c-7.5,2.3-11.8,7.8-13.4,15.9
			c-3.5,18.1-7.8,36.1-11.4,54.2c-1.6,8.1-3.2,16.3-3.6,24.6c-0.4,8.6,3.6,12.6,12.1,13.3c6.1,0.5,12.3,0.6,18.4,0.5
			c3.7-0.1,4.9,0.9,5,4.7c0.6,31,1.4,61.9,2.1,92.9C238.4,461.1,239.2,501,240,540.9z M60.1,219.7c0.4,4.3,0.8,10.9,1.5,17.5
			c1.1,9.7,7.7,14.6,17.9,13.5c8.4-0.9,13.7-8,12.8-17c-2.9-29.2,2.2-56.7,17.4-81.9c20.5-34.2,51.3-53.5,90.1-60.8
			c6.5-1.2,11.1-4.6,12.8-11c1.7-6.5-0.1-12.2-5.2-16.7c-4.6-4.2-10.3-3.6-15.7-2.6c-31.4,6.1-59.4,19.3-82.5,41.7
			C76.8,133.7,60.9,172.3,60.1,219.7z M207.5,118.6c-4.4,0.9-8.8,1.7-13.1,2.7c-48.5,11.6-81.7,61.8-73.3,111
			c1.2,7.1,6.8,12,14.1,12.3c8.3,0.4,14.8-3.7,16.4-10.8c0.7-3.2,0.6-6.7,0.2-9.9c-1.9-17.7,2.9-33.7,13.4-47.8
			c11.3-15.2,27-23.2,45.4-26.3c8.6-1.5,13.9-8.3,13-16.6C222.8,124.6,216.2,118.7,207.5,118.6z M249.9,157
			c1.6,6.1,2.4,12.4,4.8,18.1c8.8,21.2,33.3,27.2,50.2,12.5c17.5-15.2,17-47.7-1.1-62.2c-13.8-11.1-33.5-8.8-44.3,5.3
			C253.7,138.4,250.9,147.1,249.9,157z"/>
		<path id="wave-big" d="M0,204c0.8-4.7,1.6-9.4,2.2-14.1c4.4-33.4,15.5-64.2,34.1-92.3c32.1-48.7,77-79.1,133.3-93.2c4.5-1.1,9.1-2,13.7-2.8
			c7.9-1.4,14.1,1.4,17.2,7.8c3.3,6.7,2.4,14.2-3,18.7c-2.5,2.1-6.1,3.5-9.4,4c-36.5,6.5-68.8,22-95.9,47.1
			c-38.8,36-59.2,80.9-60.5,134c-0.2,9.1,0.6,18.3,1.1,27.4c0.3,6.9-2.6,11.9-8.7,14.9c-5.5,2.7-13.6,2.1-17.4-2.9
			c-2.9-3.8-3.8-9.3-5.3-14.1c-0.8-2.4-0.9-5.1-1.3-7.6C0,222,0,213,0,204z"/>
		<path fill="#FFFFFF" d="M267,540.9c2.7-37,5.5-73.9,8.2-110.9c0.9-11.9,2.1-23.9,2.5-35.8c0.2-4.4,2.5-6.5,5.7-6.8
			c3.7-0.3,4.3,3.2,4.6,6.4c2.7,32.8,5.3,65.6,8.1,98.4c1.4,16.2,3.2,32.4,4.8,48.6C289.6,540.9,278.3,540.9,267,540.9z"/>
		<path id="wave-md" d="M60.1,219.7c0.9-47.4,16.8-86.1,49.2-117.5c23.1-22.4,51.1-35.6,82.5-41.7c5.4-1,11-1.6,15.7,2.6c5,4.6,6.8,10.3,5.2,16.7
			c-1.7,6.5-6.3,9.8-12.8,11c-38.8,7.3-69.6,26.7-90.1,60.8c-15.2,25.2-20.4,52.7-17.4,81.9c0.9,9.1-4.5,16.2-12.8,17
			c-10.1,1.1-16.7-3.8-17.9-13.5C60.8,230.6,60.4,224,60.1,219.7z"/>
		<path id="wave-sm" d="M207.5,118.6c8.7,0.1,15.2,6,16.1,14.7c0.8,8.3-4.5,15.1-13,16.6c-18.4,3.1-34.1,11.2-45.4,26.3
			c-10.5,14.1-15.3,30-13.4,47.8c0.4,3.3,0.5,6.7-0.2,9.9c-1.6,7.1-8.1,11.2-16.4,10.8c-7.3-0.4-12.9-5.2-14.1-12.3
			c-8.4-49.2,24.8-99.5,73.3-111C198.8,120.3,203.1,119.5,207.5,118.6z"/>
		<path d="M249.9,157c0.9-9.9,3.7-18.6,9.6-26.3c10.8-14.1,30.5-16.5,44.3-5.3c18,14.5,18.6,47,1.1,62.2
			c-16.9,14.6-41.5,8.7-50.2-12.5C252.4,169.5,251.5,163.1,249.9,157z"/>
		<path d="M367.1,293.3c-2.5-19-5.7-37.8-11.9-56.1c-3.4-10.3-9.2-18.2-19.7-21.6c-7.4-2.3-15.1-4.9-22.7-5.3
			c-19.2-1-38.5-1.6-57.8-1c-8.9,0.3-17.9,3.1-26.6,5.7c-7.5,2.3-11.8,7.8-13.4,15.9c-3.5,18.1-7.8,36.1-11.4,54.2
			c-1.6,8.1-3.2,16.3-3.6,24.6c-0.4,8.6,3.6,12.6,12.1,13.3c6.1,0.5,12.3,0.6,18.4,0.5c3.7-0.1,4.9,0.9,5,4.7
			c0.6,31,1.4,61.9,2.1,92.9c0.9,39.9,1.6,79.9,2.4,119.9c9,0,18,0,27,0c2.7-37,5.5-74,8.2-111c0.9-11.9,2.1-23.9,2.5-35.8
			c0.2-4.4,2.5-6.5,5.7-6.8c3.7-0.3,4.3,3.2,4.6,6.4c2.7,32.8,5.3,65.7,8.1,98.5c1.4,16.2,3.2,32.7,4.8,48.7c8.7,0,17.3,0,26,0
			c-0.2-2-0.5-4-0.5-6c0.3-23.6,0.8-47.3,1.1-70.9c0.4-29.8,0.7-59.6,1.2-89.4c0.2-15.5,0.7-31,0.8-46.4c0-3.9,1.5-4.8,5-4.7
			c7.3,0.2,14.7,0.1,22,0.1c7.6,0,12.4-4.4,12.2-11.9C368.6,305.6,367.9,299.4,367.1,293.3z M314.1,331c-1,2-4.7,3.7-7.2,3.7
			c-15.3,0.1-30.6-0.1-45.9-0.6c-2.3-0.1-6.4-1.4-6.6-2.6c-0.6-3.5,0-7.4,0.9-10.9c0.4-1.4,2.4-3,4-3.5c6.1-1.8,6.5-6.9,7.2-11.8
			c0.6-3.6-1.1-5.5-5-5.7c-7.8-0.3-7.8-0.4-7.8-8.1c0-3.3-0.1-6.7,0-10c0.2-5.8,1.8-7.4,7.6-7.5c6.3-0.1,12.6,0,19,0
			c-0.3-4.5-0.3-8.2-0.8-11.7c-0.3-2-1-4.1-2.1-5.6c-3-4.1-3.3-10-0.2-13.2c3.3-3.4,9.6-3.7,13.2-0.6c3.5,3.1,3.7,8.6,0.9,13.2
			c-1.4,2.2-2,5-2.5,7.6c-0.5,3-0.5,6.2-0.8,10.4c2.8,0,6-0.1,9.1,0c4.3,0.1,8.6,0.2,12.9,0.6c3.1,0.3,4.6,2.1,4.5,5.4
			c-0.2,3.7,0,7.3,0,11c-0.1,6.5-1.6,7.9-8,7.9c-6.7,0-5.9,0-5.3,6.6c0.5,5.9,3.2,8.7,7.9,11.3C314.1,319.6,316.6,326.1,314.1,331z"
			/>
	</g>
</g>
</svg>